<svg width="24" height="24" viewBox="0 0 24 24" fill="none" xmlns="http://www.w3.org/2000/svg">
<path d="M23.8348 22.5739L17.7882 16.5273C17.6804 16.4195 17.5398 16.3633 17.3898 16.3633H16.907C18.5147 14.6243 19.499 12.3041 19.499 9.74952C19.499 4.36385 15.1352 0 9.74952 0C4.36385 0 0 4.36385 0 9.74952C0 15.1352 4.36385 19.499 9.74952 19.499C12.3041 19.499 14.6243 18.5147 16.3633 16.9117V17.3898C16.3633 17.5398 16.4242 17.6804 16.5273 17.7882L22.5739 23.8348C22.7942 24.0551 23.1504 24.0551 23.3707 23.8348L23.8348 23.3707C24.0551 23.1504 24.0551 22.7942 23.8348 22.5739ZM9.74952 17.9991C5.18881 17.9991 1.49993 14.3102 1.49993 9.74952C1.49993 5.18881 5.18881 1.49993 9.74952 1.49993C14.3102 1.49993 17.9991 5.18881 17.9991 9.74952C17.9991 14.3102 14.3102 17.9991 9.74952 17.9991Z" fill="#808080"/>
</svg>
